<svg width="177" height="224" viewBox="0 0 177 224" fill="none" xmlns="http://www.w3.org/2000/svg">
<g opacity="0.502697">
<path fill-rule="evenodd" clip-rule="evenodd" d="M131.359 98.441L45.6897 49.72L49.1736 43.6096L134.843 92.3306L131.359 98.441Z" stroke="#010202"/>
<path d="M34.6716 1.2692L151.244 223.098" stroke="#010202"/>
<path fill-rule="evenodd" clip-rule="evenodd" d="M48.8729 113.558C24.5811 112.71 5.57605 92.3567 6.42321 68.0973C7.27037 43.8379 27.6489 24.8602 51.9407 25.7084C76.2326 26.5567 95.2376 46.9098 94.3904 71.1692C93.5433 95.4286 73.1648 114.406 48.8729 113.558Z" fill="#010202"/>
<path d="M84.9238 96.9033L47.5398 25.7601" stroke="#FEFEFE"/>
<path fill-rule="evenodd" clip-rule="evenodd" d="M100.172 153.887L13.0954 200.037L9.79407 193.825L96.8708 147.675L100.172 153.887Z" stroke="#010202"/>
<path fill-rule="evenodd" clip-rule="evenodd" d="M74.2602 143.164C69.2696 142.99 65.3642 138.807 65.5382 133.823C65.7123 128.839 69.8999 124.94 74.8906 125.114C79.8812 125.288 83.7866 129.471 83.6126 134.455C83.4385 139.439 79.2509 143.338 74.2602 143.164Z" stroke="#010202"/>
</g>
</svg>
